<svg width="20" height="21" viewBox="0 0 20 21" fill="none" xmlns="http://www.w3.org/2000/svg">
<path d="M16.4093 0.672301C16.3795 0.442973 16.0464 0.442973 16.0174 0.672301C15.7897 2.45782 14.384 3.86266 12.5992 4.09049C12.3691 4.12026 12.3691 4.45338 12.5992 4.48234C14.3839 4.71006 15.7896 6.11577 16.0174 7.90052C16.0464 8.13065 16.3795 8.13065 16.4093 7.90052C16.637 6.11581 18.0419 4.71016 19.8275 4.48234C20.0576 4.45337 20.0576 4.12025 19.8275 4.09049C18.0419 3.86276 16.6371 2.45786 16.4093 0.672301Z" fill="#947100"/>
<path d="M8.19787 5.12128C8.14476 4.70689 7.5453 4.70689 7.49219 5.12128C7.01343 8.8709 4.06124 11.824 0.310791 12.3019C-0.103597 12.355 -0.103597 12.9552 0.310791 13.0075C4.06124 13.4863 7.01347 16.4393 7.49219 20.1889C7.5453 20.6033 8.14477 20.6033 8.19787 20.1889C8.67583 16.4393 11.6288 13.4863 15.3793 13.0075C15.7929 12.9552 15.7929 12.355 15.3793 12.3019C11.6288 11.8239 8.67577 8.8709 8.19787 5.12128Z" fill="#947100"/>
</svg>
